<?xml version="1.0" encoding="UTF-8" standalone="no"?>
<svg
   xmlns:dc="http://purl.org/dc/elements/1.1/"
   xmlns:cc="http://creativecommons.org/ns#"
   xmlns:rdf="http://www.w3.org/1999/02/22-rdf-syntax-ns#"
   xmlns:svg="http://www.w3.org/2000/svg"
   xmlns="http://www.w3.org/2000/svg"
   width="135.12617mm"
   height="35.913822mm"
   viewBox="0 0 478.79353 127.2537"
   id="svg2"
   version="1.1">
  <defs
     id="defs4" />
  <metadata
     id="metadata7">
    <rdf:RDF>
      <cc:Work
         rdf:about="">
        <dc:format>image/svg+xml</dc:format>
        <dc:type
           rdf:resource="http://purl.org/dc/dcmitype/StillImage" />
        <dc:title></dc:title>
      </cc:Work>
    </rdf:RDF>
  </metadata>
  <g
     id="layer1"
     transform="translate(14.27001,99.422921)">
    <g
       id="text4136"
       style="font-style:normal;font-variant:normal;font-weight:bold;font-size:118.3369751px;line-height:1000%;font-family:Americana;-inkscape-font-specification:'Americana Bold';letter-spacing:0px;word-spacing:0px;fill:#000000;fill-opacity:1;stroke:none;stroke-width:1px;stroke-linecap:butt;stroke-linejoin:miter;stroke-opacity:1"
       transform="scale(0.97285672,1.0279006)"
       aria-label="comedi">
      <path
         id="path10"
         style="font-style:normal;font-variant:normal;font-weight:bold;font-size:118.3369751px;line-height:1000%;font-family:Americana;-inkscape-font-specification:'Americana Bold';letter-spacing:0px;word-spacing:0px;fill:#000000;fill-opacity:1;stroke:none;stroke-width:1px;stroke-linecap:butt;stroke-linejoin:miter;stroke-opacity:1"
         d="m 69.135573,-60.245946 c -5.798511,-4.260131 -19.643938,-7.100218 -26.389145,-7.100218 -20.117286,0 -35.0277447,13.608752 -35.0277447,32.542668 0,18.933916 14.9104587,32.5426682 35.0277447,32.5426682 12.780393,0 20.827308,-5.7985118 27.217504,-16.6855132 l -1.893391,-1.893392 c -4.378468,8.756936 -13.72709,15.6204808 -23.785732,15.6204808 -10.887002,0 -22.839037,-8.1652518 -22.839037,-29.5842438 0.118337,-14.437111 5.680175,-30.294266 21.182319,-30.294266 12.307045,0 18.697242,7.336893 21.655666,15.857155 0.236674,0.710022 0.355011,1.420044 0.710022,1.420044 0.355011,0 0.828359,-1.301707 1.420044,-3.195099 z" />
      <path
         id="path12"
         style="font-style:normal;font-variant:normal;font-weight:bold;font-size:118.3369751px;line-height:1000%;font-family:Americana;-inkscape-font-specification:'Americana Bold';letter-spacing:0px;word-spacing:0px;fill:#000000;fill-opacity:1;stroke:none;stroke-width:1px;stroke-linecap:butt;stroke-linejoin:miter;stroke-opacity:1"
         d="m 92.181701,-34.803496 c 0,-13.963763 3.668446,-30.294266 21.300659,-30.294266 17.75054,0 21.41899,16.330503 21.41899,30.294266 0,13.963763 -3.66845,30.2942656 -21.41899,30.2942656 -17.632213,0 -21.300659,-16.3305026 -21.300659,-30.2942656 z m -13.727089,0 c 0,18.933916 14.910459,32.5426682 35.027748,32.5426682 20.23562,0 35.14608,-13.6087522 35.14608,-32.5426682 0,-18.933916 -14.91046,-32.542668 -35.14608,-32.542668 -20.117289,0 -35.027748,13.608752 -35.027748,32.542668 z" />
      <path
         id="path14"
         style="font-style:normal;font-variant:normal;font-weight:bold;font-size:118.3369751px;line-height:1000%;font-family:Americana;-inkscape-font-specification:'Americana Bold';letter-spacing:0px;word-spacing:0px;fill:#000000;fill-opacity:1;stroke:none;stroke-width:1px;stroke-linecap:butt;stroke-linejoin:miter;stroke-opacity:1"
         d="m 172.76548,-66.044457 c -4.37846,1.53838 -9.34862,2.72175 -14.91045,3.786783 -0.82836,0.118337 -1.77506,0.236674 -1.77506,0.946696 0,0.355011 1.06503,0.473347 1.89339,0.591684 3.90512,0.828359 3.90512,5.680175 3.90512,8.993611 v 28.755885 c 0,8.99361 -0.11833,16.685513 -3.66844,17.9872197 -0.47335,0.236674 -0.82836,0.4733479 -0.82836,0.9466958 0,0.355011 0.47335,0.355011 1.3017,0.355011 0.9467,0 2.84009,-0.355011 9.23029,-0.355011 6.50853,0 9.9403,0.355011 10.76866,0.355011 1.06504,0 1.65672,0 1.65672,-0.355011 0,-0.3550109 -0.23667,-0.8283588 -0.71002,-0.9466958 -4.73348,-1.0650327 -5.56184,-6.5085337 -5.56184,-13.9637627 v -16.685514 c 0,-11.242012 3.55011,-28.755885 17.86888,-28.755885 10.88701,0 14.67379,9.348621 14.67379,18.815579 v 26.62582 c 0,7.455229 -1.06503,12.780393 -5.79851,14.2004367 -0.47335,0.118337 -0.71002,0.4733479 -0.71002,0.7100218 0,0.236674 0.59168,0.355011 0.94669,0.355011 1.30171,0 5.20683,-0.355011 11.59702,-0.355011 6.50854,0 10.41366,0.355011 11.24202,0.355011 0.47335,0 1.3017,-0.118337 1.3017,-0.4733479 0,-0.4733479 -0.47334,-0.9466958 -1.42004,-1.0650328 -4.26013,-0.7100219 -4.97015,-4.3784681 -4.97015,-10.2953168 v -20.117286 c 0,-11.242012 3.55011,-28.755885 17.86888,-28.755885 10.887,0 14.67379,9.348621 14.67379,18.815579 v 23.904069 c 0,10.17698 -0.59169,15.147133 -5.91685,16.6855137 -0.47335,0.236674 -0.82836,0.355011 -0.82836,0.7100219 0,0.2366739 0.23667,0.5916849 0.94669,0.5916849 0.59169,0 5.4435,-0.355011 11.8337,-0.355011 6.50854,0 9.94031,0.355011 10.65033,0.355011 0.71002,0 1.65672,-0.118337 1.65672,-0.355011 0,-0.4733479 -0.82836,-0.7100218 -1.53838,-0.9466958 -3.66845,-1.1833697 -4.61515,-3.3134353 -4.61515,-10.4136537 v -25.087439 c 0,-22.010677 -11.24201,-26.862493 -22.01067,-26.862493 -11.47869,0 -19.88061,5.206827 -23.19405,16.448839 h -0.23667 c -1.8934,-10.53199 -10.29532,-16.448839 -21.30066,-16.448839 -11.47869,0 -19.88061,5.206827 -23.78573,16.448839 h -0.23668 z" />
      <path
         id="path16"
         style="font-style:normal;font-variant:normal;font-weight:bold;font-size:118.3369751px;line-height:1000%;font-family:Americana;-inkscape-font-specification:'Americana Bold';letter-spacing:0px;word-spacing:0px;fill:#000000;fill-opacity:1;stroke:none;stroke-width:1px;stroke-linecap:butt;stroke-linejoin:miter;stroke-opacity:1"
         d="m 289.91909,-45.335487 c 1.30171,-10.17698 7.10022,-19.762275 17.86888,-19.762275 12.30705,0 17.86889,8.165252 17.86889,19.762275 z m 50.64823,2.248403 c -1.65672,-16.44884 -17.2772,-24.25908 -30.17593,-24.25908 -20.11729,0 -35.02775,13.608752 -35.02775,32.542668 0,18.933916 14.91046,32.5426682 35.02775,32.5426682 16.09383,0 27.92752,-9.8219692 31.71431,-26.1524712 h -2.48508 c -4.02346,13.845426 -14.0821,23.1940468 -27.69085,23.1940468 -11.47869,0 -22.83904,-8.1652518 -22.83904,-30.1759288 0,-2.485076 0.11834,-4.970153 0.35501,-7.691903 z" />
      <path
         id="path18"
         style="font-style:normal;font-variant:normal;font-weight:bold;font-size:118.3369751px;line-height:1000%;font-family:Americana;-inkscape-font-specification:'Americana Bold';letter-spacing:0px;word-spacing:0px;fill:#000000;fill-opacity:1;stroke:none;stroke-width:1px;stroke-linecap:butt;stroke-linejoin:miter;stroke-opacity:1"
         d="m 363.86306,-34.803496 c 0,-24.850765 12.89873,-29.584244 20.70897,-29.584244 7.6919,0 20.59063,4.733479 20.59063,29.584244 0,22.010677 -12.89873,29.5842438 -20.59063,29.5842438 -7.81024,0 -20.70897,-4.733479 -20.70897,-29.5842438 z m 52.89663,-55.026693 c -5.68018,1.53838 -10.65033,2.72175 -16.21217,3.786783 -0.82836,0.118337 -2.13006,0.236674 -2.13006,0.710022 0,0.355011 0.71002,0.473348 1.53838,0.710021 4.61514,0.946696 4.61514,4.851816 4.61514,9.111948 v 18.223894 h -0.23667 c -4.73348,-6.390197 -13.37208,-10.058643 -23.6674,-10.058643 -17.2772,0 -30.53094,15.738818 -30.53094,32.542668 0,19.880612 13.96376,32.5426682 30.53094,32.5426682 11.95203,0 19.40726,-5.5618379 24.02241,-13.6087522 h 0.23667 c 0.59168,2.958424 1.30171,7.5735664 3.43177,11.8336975 h 13.96377 c 1.42004,0 2.01172,-0.1183369 2.01172,-0.4733479 0,-0.2366739 -0.35501,-0.4733479 -0.82835,-0.5916848 -4.26014,-1.1833698 -5.91685,-5.6801748 -6.27186,-10.2953168 -0.47335,-6.390197 -0.47335,-12.89873 -0.47335,-19.407264 z" />
      <path
         id="path20"
         style="font-style:normal;font-variant:normal;font-weight:bold;font-size:118.3369751px;line-height:1000%;font-family:Americana;-inkscape-font-specification:'Americana Bold';letter-spacing:0px;word-spacing:0px;fill:#000000;fill-opacity:1;stroke:none;stroke-width:1px;stroke-linecap:butt;stroke-linejoin:miter;stroke-opacity:1"
         d="m 435.57158,-18.946341 c 0,7.455229 -0.82836,12.780393 -6.27186,13.8454258 -0.71002,0.1183369 -1.18337,0.3550109 -1.18337,1.0650327 0,0.355011 0.59168,0.355011 1.65672,0.355011 1.18337,0 5.4435,-0.355011 11.83369,-0.355011 6.3902,0 10.65033,0.355011 11.8337,0.355011 1.06503,0 1.65672,0 1.65672,-0.355011 0,-0.7100218 -0.47335,-0.9466958 -1.18337,-1.0650327 -5.4435,-1.0650328 -6.15352,-6.3901968 -6.15352,-13.8454258 v -47.098116 c -5.68018,1.53838 -10.65033,2.72175 -16.21217,3.786783 -0.82836,0.118337 -2.13007,0.236674 -2.13007,0.473348 0,0.355011 1.30171,0.355011 2.01173,0.710022 1.89339,1.065032 4.1418,1.775054 4.1418,7.691903 z m 5.08849,-54.79002 c 4.02345,0 7.10022,-3.195098 7.10022,-6.981881 0,-3.786784 -3.07677,-7.100219 -7.10022,-7.100219 -3.78679,0 -6.98188,3.313435 -6.98188,7.100219 0,3.786783 3.19509,6.981881 6.98188,6.981881 z" />
    </g>
    <g
       id="text4277"
       style="font-style:normal;font-weight:bold;font-size:19.46393776px;line-height:1000%;font-family:Americana;-inkscape-font-specification:'Americana Bold';letter-spacing:0px;word-spacing:0px;fill:#000000;fill-opacity:1;stroke:none;stroke-width:1px;stroke-linecap:butt;stroke-linejoin:miter;stroke-opacity:1"
       aria-label="linux device control and measurement interface">
      <path
         id="path23"
         style="font-style:normal;font-weight:bold;font-size:19.46393776px;line-height:1000%;font-family:Americana;-inkscape-font-specification:'Americana Bold';letter-spacing:0px;word-spacing:0px;fill:#000000;fill-opacity:1;stroke:none;stroke-width:1px;stroke-linecap:butt;stroke-linejoin:miter;stroke-opacity:1"
         d="m -10.167912,6.3409042 c -0.934269,0.2530312 -1.751754,0.4476706 -2.666559,0.622846 -0.136248,0.019464 -0.291959,0.038928 -0.291959,0.1362476 0,0.077856 0.175175,0.1362475 0.291959,0.1557115 0.486598,0.09732 0.661774,0.4865984 0.661774,1.4403314 v 9.3037623 c 0,1.226228 -0.03893,1.888002 -1.109445,2.335672 -0.07785,0.03893 -0.116783,0.07786 -0.116783,0.116784 0,0.05839 0.07785,0.05839 0.194639,0.05839 0.136248,0 0.973197,-0.05839 2.02425,-0.05839 1.4597949,0 1.9658573,0.05839 2.063177,0.05839 0.077856,0 0.1751754,-0.01946 0.1751754,-0.05839 0,-0.03893 -0.038928,-0.07786 -0.1167836,-0.116784 -1.0510528,-0.369814 -1.1094448,-1.109444 -1.1094448,-2.335672 z" />
      <path
         id="path25"
         style="font-style:normal;font-weight:bold;font-size:19.46393776px;line-height:1000%;font-family:Americana;-inkscape-font-specification:'Americana Bold';letter-spacing:0px;word-spacing:0px;fill:#000000;fill-opacity:1;stroke:none;stroke-width:1px;stroke-linecap:butt;stroke-linejoin:miter;stroke-opacity:1"
         d="m -6.7744958,17.999803 c 0,1.226228 -0.1362476,2.102105 -1.0315887,2.277281 -0.1167836,0.01946 -0.1946394,0.05839 -0.1946394,0.175175 0,0.05839 0.09732,0.05839 0.2724951,0.05839 0.1946394,0 0.8953412,-0.05839 1.9463938,-0.05839 1.0510527,0 1.7517544,0.05839 1.9463938,0.05839 0.1751754,0 0.2724951,0 0.2724951,-0.05839 0,-0.116784 -0.077856,-0.155711 -0.1946394,-0.175175 -0.8953411,-0.175176 -1.0121247,-1.051053 -1.0121247,-2.277281 v -7.746647 c -0.934269,0.253031 -1.7517544,0.44767 -2.6665595,0.622846 -0.1362476,0.01946 -0.3503509,0.03893 -0.3503509,0.07785 0,0.05839 0.2141033,0.05839 0.330887,0.116784 0.311423,0.175176 0.6812378,0.291959 0.6812378,1.265156 z m 0.8369493,-9.0118033 c 0.6617739,0 1.1678363,-0.5255263 1.1678363,-1.1483723 0,-0.622846 -0.5060624,-1.1678363 -1.1678363,-1.1678363 -0.622846,0 -1.1483723,0.5449903 -1.1483723,1.1678363 0,0.622846 0.5255263,1.1483723 1.1483723,1.1483723 z" />
      <path
         id="path27"
         style="font-style:normal;font-weight:bold;font-size:19.46393776px;line-height:1000%;font-family:Americana;-inkscape-font-specification:'Americana Bold';letter-spacing:0px;word-spacing:0px;fill:#000000;fill-opacity:1;stroke:none;stroke-width:1px;stroke-linecap:butt;stroke-linejoin:miter;stroke-opacity:1"
         d="m 0.1418928,10.253156 c -0.72016569,0.253031 -1.5181871,0.389278 -2.4524562,0.564454 -0.2335672,0.03893 -0.3698148,0.03893 -0.3698148,0.09732 0,0.03893 0.1362476,0.09732 0.3503509,0.194639 0.5449903,0.233567 0.6812378,0.895341 0.6812378,2.063177 v 4.827057 c 0,1.226228 -0.077856,2.141033 -1.0510526,2.296745 -0.1362476,0.01946 -0.2141033,0.05839 -0.2141033,0.116783 0,0.07786 0.058392,0.09732 0.1751754,0.09732 0.1362476,0 1.0315887,-0.05839 2.08264136,-0.05839 1.05105263,0 1.84907404,0.05839 1.98532164,0.05839 0.1167836,0 0.1751754,-0.01946 0.1751754,-0.09732 0,-0.05839 -0.077856,-0.09732 -0.2141033,-0.116783 C 0.41438793,20.140836 0.35599612,19.226031 0.35599612,17.999803 v -2.374601 c 0,-2.724951 0.75909358,-5.099551 3.07530218,-5.099551 2.0631774,0 2.8611988,1.907466 2.8611988,3.698148 v 3.776004 c 0,1.73229 -0.3503508,2.257817 -1.0510526,2.335672 -0.1362476,0.01946 -0.1751754,0.07786 -0.1751754,0.116784 0,0.05839 0.09732,0.05839 0.2141033,0.05839 0.2530312,0 0.9537329,-0.05839 2.0047856,-0.05839 1.0705165,0 1.5765789,0.05839 1.7517544,0.05839 0.1946393,0 0.291959,0 0.291959,-0.05839 0,-0.03893 -0.1167836,-0.09732 -0.2530312,-0.136248 C 8.511386,20.121372 8.2583548,19.848877 8.2972827,17.999803 v -3.75654 c 0,-3.094766 -2.0047856,-4.204211 -4.1458187,-4.204211 -2.5692398,0 -3.52297275,1.362476 -3.97064332,3.016911 H 0.1418928 Z" />
      <path
         id="path29"
         style="font-style:normal;font-weight:bold;font-size:19.46393776px;line-height:1000%;font-family:Americana;-inkscape-font-specification:'Americana Bold';letter-spacing:0px;word-spacing:0px;fill:#000000;fill-opacity:1;stroke:none;stroke-width:1px;stroke-linecap:butt;stroke-linejoin:miter;stroke-opacity:1"
         d="m 20.72379,10.253156 c -0.973197,0.233567 -1.751755,0.369814 -2.510848,0.486598 -0.09732,0.01946 -0.311423,0.05839 -0.311423,0.116784 0,0.01946 0.07785,0.03893 0.253031,0.136247 0.350351,0.175176 0.564454,0.428207 0.564454,1.615507 v 3.912252 c 0,1.810146 -0.973197,3.737076 -2.997446,3.737076 -2.063178,0 -2.861199,-1.907466 -2.861199,-3.698148 v -6.306316 c -0.934269,0.253031 -1.751755,0.44767 -2.627632,0.564454 -0.175175,0.01946 -0.291959,0.01946 -0.291959,0.07786 0,0.05839 0.136248,0.116783 0.291959,0.155711 0.54499,0.19464 0.622846,0.428207 0.622846,1.557115 v 3.931716 c 0,3.133694 1.362476,4.20421 4.145819,4.20421 2.004785,0 3.153158,-0.798021 3.795468,-2.530312 h 0.03893 c 0.03893,0.914805 0.214103,1.596043 0.506062,2.238353 h 2.316209 c 0.136247,0 0.253031,-0.01946 0.253031,-0.07786 0,-0.01946 -0.03893,-0.03893 -0.116784,-0.05839 -0.836949,-0.214103 -1.070516,-0.720165 -1.070516,-2.335672 z" />
      <path
         id="path31"
         style="font-style:normal;font-weight:bold;font-size:19.46393776px;line-height:1000%;font-family:Americana;-inkscape-font-specification:'Americana Bold';letter-spacing:0px;word-spacing:0px;fill:#000000;fill-opacity:1;stroke:none;stroke-width:1px;stroke-linecap:butt;stroke-linejoin:miter;stroke-opacity:1"
         d="m 27.252724,12.705612 c -0.506062,-0.681238 -1.051052,-1.362476 -1.051052,-1.732291 0,-0.54499 0.564454,-0.54499 0.564454,-0.64231 0,-0.07785 -0.09732,-0.07785 -0.253031,-0.07785 -0.583919,0 -0.817486,0.07785 -1.712827,0.07785 -0.934269,0 -1.167836,-0.07785 -1.751754,-0.07785 -0.233568,0 -0.311423,0 -0.311423,0.07785 0,0.05839 0.311423,0.09732 0.44767,0.214104 0.291959,0.233567 1.148373,1.206764 2.004786,2.335672 l 1.946394,2.705488 -1.907466,2.160497 c -0.914805,1.051052 -1.537651,1.751754 -2.608168,2.452456 -0.272495,0.175175 -0.467135,0.155711 -0.467135,0.233567 0,0.05839 0.07786,0.07786 0.175176,0.07786 0.116784,0 0.778557,-0.05839 1.576579,-0.05839 0.759093,0 1.226228,0.05839 1.323548,0.05839 0.136247,0 0.253031,0 0.253031,-0.05839 0,-0.03893 -0.09732,-0.05839 -0.253031,-0.116784 -0.233568,-0.03893 -0.389279,-0.311423 -0.389279,-0.564454 0,-0.44767 0.44767,-1.323548 1.109444,-2.063177 l 1.343012,-1.732291 1.459795,2.004786 c 0.583919,0.798021 1.109445,1.557115 1.109445,1.82961 0,0.233567 -0.116784,0.408743 -0.330887,0.506062 -0.136248,0.03893 -0.330887,0.05839 -0.330887,0.116784 0,0.05839 0.07786,0.07786 0.175175,0.07786 0.116784,0 0.603382,-0.05839 2.082642,-0.05839 1.596043,0 1.888002,0.05839 1.985321,0.05839 0.09732,0 0.214104,-0.01946 0.19464,-0.05839 -0.01946,-0.05839 -0.175176,-0.09732 -0.408743,-0.233567 -0.759093,-0.467135 -2.024249,-2.141033 -2.510848,-2.822271 l -2.024249,-2.744415 2.141033,-2.335673 c 0.506062,-0.54499 1.206764,-1.051053 1.73229,-1.498723 0.408743,-0.350351 0.700702,-0.389279 0.700702,-0.486599 0,-0.07785 -0.07786,-0.07785 -0.194639,-0.07785 -0.467135,0 -0.64231,0.07785 -1.343012,0.07785 -0.73963,0 -0.914805,-0.07785 -1.38194,-0.07785 -0.116783,0 -0.253031,0.03893 -0.253031,0.09732 0,0.09732 0.214103,0.116784 0.311423,0.253032 0.155712,0.155711 0.253031,0.35035 0.253031,0.603382 0,0.506062 -0.759093,1.343011 -1.206764,1.907466 l -0.992661,1.206764 z" />
      <path
         id="path33"
         style="font-style:normal;font-weight:bold;font-size:19.46393776px;line-height:1000%;font-family:Americana;-inkscape-font-specification:'Americana Bold';letter-spacing:0px;word-spacing:0px;fill:#000000;fill-opacity:1;stroke:none;stroke-width:1px;stroke-linecap:butt;stroke-linejoin:miter;stroke-opacity:1"
         d="m 42.94005,15.391635 c 0,-4.087427 2.121569,-4.865984 3.406189,-4.865984 1.265156,0 3.386725,0.778557 3.386725,4.865984 0,3.620293 -2.121569,4.865985 -3.386725,4.865985 -1.28462,0 -3.406189,-0.778558 -3.406189,-4.865985 z m 8.70038,-9.0507308 c -0.934269,0.2530312 -1.751754,0.4476706 -2.666559,0.622846 -0.136248,0.019464 -0.350351,0.038928 -0.350351,0.1167836 0,0.058392 0.116783,0.077856 0.253031,0.1167836 0.759093,0.1557116 0.759093,0.7980215 0.759093,1.4987233 v 2.9974463 h -0.03893 c -0.778558,-1.051053 -2.199425,-1.654435 -3.892788,-1.654435 -2.841735,0 -5.021696,2.588704 -5.021696,5.352583 0,3.269942 2.296745,5.352583 5.021696,5.352583 1.965858,0 3.192086,-0.914805 3.951179,-2.238353 h 0.03893 c 0.09732,0.486599 0.214104,1.245692 0.564454,1.946394 h 2.296745 c 0.233567,0 0.330887,-0.01946 0.330887,-0.07786 0,-0.03893 -0.05839,-0.07785 -0.136248,-0.09732 -0.700701,-0.19464 -0.973196,-0.934269 -1.031588,-1.693363 -0.07786,-1.051053 -0.07786,-2.121569 -0.07786,-3.192086 z" />
      <path
         id="path35"
         style="font-style:normal;font-weight:bold;font-size:19.46393776px;line-height:1000%;font-family:Americana;-inkscape-font-specification:'Americana Bold';letter-spacing:0px;word-spacing:0px;fill:#000000;fill-opacity:1;stroke:none;stroke-width:1px;stroke-linecap:butt;stroke-linejoin:miter;stroke-opacity:1"
         d="m 56.058138,13.659345 c 0.214103,-1.673899 1.167836,-3.250478 2.939055,-3.250478 2.024249,0 2.939054,1.343012 2.939054,3.250478 z m 8.330565,0.369815 c -0.272495,-2.705488 -2.841734,-3.990108 -4.963304,-3.990108 -3.308869,0 -5.761325,2.238353 -5.761325,5.352583 0,3.11423 2.452456,5.352583 5.761325,5.352583 2.647096,0 4.59349,-1.615507 5.216336,-4.30153 h -0.408743 c -0.661774,2.277281 -2.316209,3.814932 -4.554561,3.814932 -1.888002,0 -3.75654,-1.343012 -3.75654,-4.963304 0,-0.408743 0.01946,-0.817486 0.05839,-1.265156 z" />
      <path
         id="path37"
         style="font-style:normal;font-weight:bold;font-size:19.46393776px;line-height:1000%;font-family:Americana;-inkscape-font-specification:'Americana Bold';letter-spacing:0px;word-spacing:0px;fill:#000000;fill-opacity:1;stroke:none;stroke-width:1px;stroke-linecap:butt;stroke-linejoin:miter;stroke-opacity:1"
         d="m 69.25195,12.5499 c -0.175175,-0.369814 -0.486598,-0.934269 -0.486598,-1.323547 0,-0.428207 0.233567,-0.661774 0.54499,-0.73963 0.09732,-0.03893 0.175175,-0.09732 0.175175,-0.155712 0,-0.05839 -0.155711,-0.07785 -0.253031,-0.07785 -0.155711,0 -0.856413,0.07785 -1.751754,0.07785 -0.934269,0 -1.420868,-0.07785 -1.732291,-0.07785 -0.136247,0 -0.253031,0 -0.253031,0.07785 0,0.05839 0.07786,0.09732 0.233567,0.19464 0.817486,0.54499 1.440332,1.810146 2.179961,3.289405 l 3.40619,6.637203 c 0.116783,0.194639 0.136247,0.291959 0.194639,0.291959 h 0.03893 c 0.05839,0 0.175175,-0.155711 0.233567,-0.272495 l 3.795468,-7.260049 c 0.661774,-1.1873 1.343012,-2.218889 1.985322,-2.666559 0.116783,-0.07786 0.175175,-0.155712 0.175175,-0.233568 0,-0.05839 -0.116784,-0.05839 -0.253031,-0.05839 -0.506063,0 -0.681238,0.07785 -1.440332,0.07785 -0.798021,0 -0.973196,-0.07785 -1.479259,-0.07785 -0.116783,0 -0.194639,0.01946 -0.194639,0.07785 0,0.05839 0.07786,0.09732 0.175175,0.116784 0.467135,0.155712 0.895341,0.389279 0.895341,1.051053 0,0.564454 -0.311423,1.28462 -0.661774,2.043713 l -2.491384,4.846521 z" />
      <path
         id="path39"
         style="font-style:normal;font-weight:bold;font-size:19.46393776px;line-height:1000%;font-family:Americana;-inkscape-font-specification:'Americana Bold';letter-spacing:0px;word-spacing:0px;fill:#000000;fill-opacity:1;stroke:none;stroke-width:1px;stroke-linecap:butt;stroke-linejoin:miter;stroke-opacity:1"
         d="m 79.634744,17.999803 c 0,1.226228 -0.136247,2.102105 -1.031588,2.277281 -0.116784,0.01946 -0.19464,0.05839 -0.19464,0.175175 0,0.05839 0.09732,0.05839 0.272495,0.05839 0.19464,0 0.895342,-0.05839 1.946394,-0.05839 1.051053,0 1.751755,0.05839 1.946394,0.05839 0.175175,0 0.272495,0 0.272495,-0.05839 0,-0.116784 -0.07786,-0.155711 -0.194639,-0.175175 -0.895341,-0.175176 -1.012125,-1.051053 -1.012125,-2.277281 v -7.746647 c -0.934269,0.253031 -1.751754,0.44767 -2.666559,0.622846 -0.136248,0.01946 -0.350351,0.03893 -0.350351,0.07785 0,0.05839 0.214103,0.05839 0.330887,0.116784 0.311423,0.175176 0.681237,0.291959 0.681237,1.265156 z m 0.83695,-9.0118033 c 0.661774,0 1.167836,-0.5255263 1.167836,-1.1483723 0,-0.622846 -0.506062,-1.1678363 -1.167836,-1.1678363 -0.622846,0 -1.148373,0.5449903 -1.148373,1.1678363 0,0.622846 0.525527,1.1483723 1.148373,1.1483723 z" />
      <path
         id="path41"
         style="font-style:normal;font-weight:bold;font-size:19.46393776px;line-height:1000%;font-family:Americana;-inkscape-font-specification:'Americana Bold';letter-spacing:0px;word-spacing:0px;fill:#000000;fill-opacity:1;stroke:none;stroke-width:1px;stroke-linecap:butt;stroke-linejoin:miter;stroke-opacity:1"
         d="m 94.064213,11.206889 c -0.953733,-0.700702 -3.231014,-1.167837 -4.340459,-1.167837 -3.308869,0 -5.761325,2.238353 -5.761325,5.352583 0,3.11423 2.452456,5.352583 5.761325,5.352583 2.102106,0 3.425653,-0.953733 4.476706,-2.744415 L 93.889037,17.68838 c -0.720166,1.440331 -2.257817,2.56924 -3.912251,2.56924 -1.790683,0 -3.75654,-1.343012 -3.75654,-4.865985 0.01946,-2.3746 0.934269,-4.982768 3.484044,-4.982768 2.02425,0 3.075303,1.206764 3.561901,2.608168 0.03893,0.116783 0.05839,0.233567 0.116784,0.233567 0.05839,0 0.136247,-0.214103 0.233567,-0.525526 z" />
      <path
         id="path43"
         style="font-style:normal;font-weight:bold;font-size:19.46393776px;line-height:1000%;font-family:Americana;-inkscape-font-specification:'Americana Bold';letter-spacing:0px;word-spacing:0px;fill:#000000;fill-opacity:1;stroke:none;stroke-width:1px;stroke-linecap:butt;stroke-linejoin:miter;stroke-opacity:1"
         d="m 97.913202,13.659345 c 0.214104,-1.673899 1.167837,-3.250478 2.939058,-3.250478 2.02425,0 2.93905,1.343012 2.93905,3.250478 z m 8.330568,0.369815 c -0.2725,-2.705488 -2.84174,-3.990108 -4.96331,-3.990108 -3.308866,0 -5.761322,2.238353 -5.761322,5.352583 0,3.11423 2.452456,5.352583 5.761322,5.352583 2.6471,0 4.59349,-1.615507 5.21634,-4.30153 h -0.40874 c -0.66178,2.277281 -2.31621,3.814932 -4.55457,3.814932 -1.887997,0 -3.756535,-1.343012 -3.756535,-4.963304 0,-0.408743 0.01946,-0.817486 0.05839,-1.265156 z" />
      <path
         id="path45"
         style="font-style:normal;font-weight:bold;font-size:19.46393776px;line-height:1000%;font-family:Americana;-inkscape-font-specification:'Americana Bold';letter-spacing:0px;word-spacing:0px;fill:#000000;fill-opacity:1;stroke:none;stroke-width:1px;stroke-linecap:butt;stroke-linejoin:miter;stroke-opacity:1"
         d="m 124.21051,11.206889 c -0.95374,-0.700702 -3.23102,-1.167837 -4.34046,-1.167837 -3.30887,0 -5.76133,2.238353 -5.76133,5.352583 0,3.11423 2.45246,5.352583 5.76133,5.352583 2.1021,0 3.42565,-0.953733 4.4767,-2.744415 l -0.31142,-0.311423 c -0.72016,1.440331 -2.25782,2.56924 -3.91225,2.56924 -1.79068,0 -3.75654,-1.343012 -3.75654,-4.865985 0.0195,-2.3746 0.93427,-4.982768 3.48404,-4.982768 2.02425,0 3.07531,1.206764 3.5619,2.608168 0.0389,0.116783 0.0584,0.233567 0.11679,0.233567 0.0584,0 0.13625,-0.214103 0.23357,-0.525526 z" />
      <path
         id="path47"
         style="font-style:normal;font-weight:bold;font-size:19.46393776px;line-height:1000%;font-family:Americana;-inkscape-font-specification:'Americana Bold';letter-spacing:0px;word-spacing:0px;fill:#000000;fill-opacity:1;stroke:none;stroke-width:1px;stroke-linecap:butt;stroke-linejoin:miter;stroke-opacity:1"
         d="m 128.0011,15.391635 c 0,-2.296744 0.60339,-4.982768 3.50351,-4.982768 2.91959,0 3.52298,2.686024 3.52298,4.982768 0,2.296745 -0.60339,4.982768 -3.52298,4.982768 -2.90012,0 -3.50351,-2.686023 -3.50351,-4.982768 z m -2.25781,0 c 0,3.11423 2.45245,5.352583 5.76132,5.352583 3.32834,0 5.78079,-2.238353 5.78079,-5.352583 0,-3.11423 -2.45245,-5.352583 -5.78079,-5.352583 -3.30887,0 -5.76132,2.238353 -5.76132,5.352583 z" />
      <path
         id="path49"
         style="font-style:normal;font-weight:bold;font-size:19.46393776px;line-height:1000%;font-family:Americana;-inkscape-font-specification:'Americana Bold';letter-spacing:0px;word-spacing:0px;fill:#000000;fill-opacity:1;stroke:none;stroke-width:1px;stroke-linecap:butt;stroke-linejoin:miter;stroke-opacity:1"
         d="m 141.25545,10.253156 c -0.72017,0.253031 -1.51819,0.389278 -2.45246,0.564454 -0.23357,0.03893 -0.36981,0.03893 -0.36981,0.09732 0,0.03893 0.13624,0.09732 0.35035,0.194639 0.54499,0.233567 0.68124,0.895341 0.68124,2.063177 v 4.827057 c 0,1.226228 -0.0779,2.141033 -1.05106,2.296745 -0.13624,0.01946 -0.2141,0.05839 -0.2141,0.116783 0,0.07786 0.0584,0.09732 0.17517,0.09732 0.13625,0 1.03159,-0.05839 2.08265,-0.05839 1.05105,0 1.84907,0.05839 1.98532,0.05839 0.11678,0 0.17517,-0.01946 0.17517,-0.09732 0,-0.05839 -0.0779,-0.09732 -0.2141,-0.116783 -0.87588,-0.155712 -0.93427,-1.070517 -0.93427,-2.296745 v -2.374601 c 0,-2.724951 0.75909,-5.099551 3.0753,-5.099551 2.06318,0 2.8612,1.907466 2.8612,3.698148 v 3.776004 c 0,1.73229 -0.35035,2.257817 -1.05105,2.335672 -0.13625,0.01946 -0.17518,0.07786 -0.17518,0.116784 0,0.05839 0.0973,0.05839 0.21411,0.05839 0.25303,0 0.95373,-0.05839 2.00478,-0.05839 1.07052,0 1.57658,0.05839 1.75176,0.05839 0.19464,0 0.29196,0 0.29196,-0.05839 0,-0.03893 -0.11679,-0.09732 -0.25303,-0.136248 -0.56446,-0.194639 -0.81749,-0.467134 -0.77856,-2.316208 v -3.75654 c 0,-3.094766 -2.00479,-4.204211 -4.14582,-4.204211 -2.56924,0 -3.52297,1.362476 -3.97064,3.016911 h -0.0389 z" />
      <path
         id="path51"
         style="font-style:normal;font-weight:bold;font-size:19.46393776px;line-height:1000%;font-family:Americana;-inkscape-font-specification:'Americana Bold';letter-spacing:0px;word-spacing:0px;fill:#000000;fill-opacity:1;stroke:none;stroke-width:1px;stroke-linecap:butt;stroke-linejoin:miter;stroke-opacity:1"
         d="m 152.68929,11.440456 v 7.590936 c 0,0.739629 0.27249,1.167836 0.81748,1.420867 h 2.35514 c 0.17517,0 0.31142,-0.01946 0.31142,-0.07786 0,-0.05839 -0.0778,-0.07785 -0.23357,-0.136247 -0.62284,-0.214104 -1.24569,-0.681238 -1.24569,-3.269942 v -5.527758 h 2.02425 l 0.13625,-0.622846 h -2.1605 V 8.3067619 c 0,-0.1362476 0,-0.2724951 -0.0973,-0.2724951 -0.0778,0 -0.15571,0.058392 -0.2141,0.1946394 -0.72017,1.4792592 -1.65444,2.3746008 -2.76388,2.7638788 -0.23357,0.09732 -0.38928,0.175176 -0.38928,0.272495 0,0.09732 0.0779,0.175176 0.19464,0.175176 z" />
      <path
         id="path53"
         style="font-style:normal;font-weight:bold;font-size:19.46393776px;line-height:1000%;font-family:Americana;-inkscape-font-specification:'Americana Bold';letter-spacing:0px;word-spacing:0px;fill:#000000;fill-opacity:1;stroke:none;stroke-width:1px;stroke-linecap:butt;stroke-linejoin:miter;stroke-opacity:1"
         d="m 160.70813,10.253156 c -0.81749,0.291959 -1.63497,0.486598 -2.53031,0.64231 -0.13625,0.03893 -0.38928,0.01946 -0.40874,0.09732 0,0.03893 0.0973,0.09732 0.29195,0.155712 0.68124,0.155711 0.7591,0.856413 0.7591,2.199425 v 4.651881 c 0,1.634971 -0.13625,2.024249 -1.05105,2.355136 -0.13625,0.01946 -0.21411,0.05839 -0.21411,0.09732 0,0.03893 0.0779,0.05839 0.17518,0.05839 0.11678,0 1.03159,-0.05839 2.08264,-0.05839 1.07052,0 2.02425,0.05839 2.1605,0.05839 0.0973,0 0.15571,0 0.15571,-0.05839 0,-0.03893 -0.0584,-0.07786 -0.19464,-0.116784 -1.01213,-0.194639 -1.10945,-1.109444 -1.10945,-2.335672 v -3.581365 c 0,-1.265156 0.73963,-2.686023 1.84908,-2.686023 0.40874,0 0.87588,0.05839 1.20676,0.311423 l 0.81749,-2.004786 c -1.82961,-0.077855 -3.19209,1.109445 -3.95118,2.724952 h -0.0389 z" />
      <path
         id="path55"
         style="font-style:normal;font-weight:bold;font-size:19.46393776px;line-height:1000%;font-family:Americana;-inkscape-font-specification:'Americana Bold';letter-spacing:0px;word-spacing:0px;fill:#000000;fill-opacity:1;stroke:none;stroke-width:1px;stroke-linecap:butt;stroke-linejoin:miter;stroke-opacity:1"
         d="m 167.68929,15.391635 c 0,-2.296744 0.60338,-4.982768 3.50351,-4.982768 2.91959,0 3.52297,2.686024 3.52297,4.982768 0,2.296745 -0.60338,4.982768 -3.52297,4.982768 -2.90013,0 -3.50351,-2.686023 -3.50351,-4.982768 z m -2.25782,0 c 0,3.11423 2.45246,5.352583 5.76133,5.352583 3.32833,0 5.78079,-2.238353 5.78079,-5.352583 0,-3.11423 -2.45246,-5.352583 -5.78079,-5.352583 -3.30887,0 -5.76133,2.238353 -5.76133,5.352583 z" />
      <path
         id="path57"
         style="font-style:normal;font-weight:bold;font-size:19.46393776px;line-height:1000%;font-family:Americana;-inkscape-font-specification:'Americana Bold';letter-spacing:0px;word-spacing:0px;fill:#000000;fill-opacity:1;stroke:none;stroke-width:1px;stroke-linecap:butt;stroke-linejoin:miter;stroke-opacity:1"
         d="m 181.43023,6.3409042 c -0.93427,0.2530312 -1.75175,0.4476706 -2.66656,0.622846 -0.13624,0.019464 -0.29196,0.038928 -0.29196,0.1362476 0,0.077856 0.17518,0.1362475 0.29196,0.1557115 0.4866,0.09732 0.66178,0.4865984 0.66178,1.4403314 v 9.3037623 c 0,1.226228 -0.0389,1.888002 -1.10945,2.335672 -0.0779,0.03893 -0.11678,0.07786 -0.11678,0.116784 0,0.05839 0.0779,0.05839 0.19464,0.05839 0.13625,0 0.9732,-0.05839 2.02425,-0.05839 1.45979,0 1.96586,0.05839 2.06318,0.05839 0.0779,0 0.17517,-0.01946 0.17517,-0.05839 0,-0.03893 -0.0389,-0.07786 -0.11678,-0.116784 -1.05106,-0.369814 -1.10945,-1.109444 -1.10945,-2.335672 z" />
      <path
         id="path59"
         style="font-style:normal;font-weight:bold;font-size:19.46393776px;line-height:1000%;font-family:Americana;-inkscape-font-specification:'Americana Bold';letter-spacing:0px;word-spacing:0px;fill:#000000;fill-opacity:1;stroke:none;stroke-width:1px;stroke-linecap:butt;stroke-linejoin:miter;stroke-opacity:1"
         d="m 197.75196,15.975553 c 0,1.868538 -0.7007,4.282067 -2.99745,4.282067 -1.38194,0 -2.41353,-1.031589 -2.41353,-2.452456 0,-2.56924 2.1605,-3.192086 4.2626,-3.192086 h 1.14838 z m 2.00478,-2.686023 c 0,-2.452456 -2.33567,-3.250478 -4.55456,-3.250478 -1.73229,0 -2.99745,0.136248 -4.59349,0.973197 l 0.50606,1.751755 c 0.0389,0.116783 0.0584,0.214103 0.0973,0.214103 0.0389,0 0.0779,-0.155712 0.15572,-0.330887 0.7007,-1.712827 1.75175,-2.238353 3.54243,-2.238353 1.96586,0 2.84174,1.323548 2.84174,3.192086 v 0.64231 h -1.10945 c -2.04371,0 -6.55934,0.291959 -6.55934,3.250478 0,2.316208 2.08264,3.250477 4.10689,3.250477 1.71282,0 2.84173,-0.700702 3.60082,-2.277281 h 0.0389 c 0.0389,0.681238 0.19464,1.362476 0.46714,1.985322 h 2.1021 c 0.13625,0 0.25303,-0.01946 0.25303,-0.07786 0,-0.05839 -0.0779,-0.05839 -0.19464,-0.116783 -0.60338,-0.272495 -0.7007,-0.856414 -0.7007,-1.498724 z" />
      <path
         id="path61"
         style="font-style:normal;font-weight:bold;font-size:19.46393776px;line-height:1000%;font-family:Americana;-inkscape-font-specification:'Americana Bold';letter-spacing:0px;word-spacing:0px;fill:#000000;fill-opacity:1;stroke:none;stroke-width:1px;stroke-linecap:butt;stroke-linejoin:miter;stroke-opacity:1"
         d="m 204.55125,10.253156 c -0.72016,0.253031 -1.51818,0.389278 -2.45245,0.564454 -0.23357,0.03893 -0.36982,0.03893 -0.36982,0.09732 0,0.03893 0.13625,0.09732 0.35035,0.194639 0.54499,0.233567 0.68124,0.895341 0.68124,2.063177 v 4.827057 c 0,1.226228 -0.0779,2.141033 -1.05105,2.296745 -0.13625,0.01946 -0.2141,0.05839 -0.2141,0.116783 0,0.07786 0.0584,0.09732 0.17517,0.09732 0.13625,0 1.03159,-0.05839 2.08264,-0.05839 1.05106,0 1.84908,0.05839 1.98532,0.05839 0.11679,0 0.17518,-0.01946 0.17518,-0.09732 0,-0.05839 -0.0779,-0.09732 -0.2141,-0.116783 -0.87588,-0.155712 -0.93427,-1.070517 -0.93427,-2.296745 v -2.374601 c 0,-2.724951 0.75909,-5.099551 3.0753,-5.099551 2.06318,0 2.8612,1.907466 2.8612,3.698148 v 3.776004 c 0,1.73229 -0.35035,2.257817 -1.05105,2.335672 -0.13625,0.01946 -0.17518,0.07786 -0.17518,0.116784 0,0.05839 0.0973,0.05839 0.2141,0.05839 0.25304,0 0.95374,-0.05839 2.00479,-0.05839 1.07052,0 1.57658,0.05839 1.75175,0.05839 0.19464,0 0.29196,0 0.29196,-0.05839 0,-0.03893 -0.11678,-0.09732 -0.25303,-0.136248 -0.56445,-0.194639 -0.81748,-0.467134 -0.77856,-2.316208 v -3.75654 c 0,-3.094766 -2.00478,-4.204211 -4.14581,-4.204211 -2.56924,0 -3.52298,1.362476 -3.97065,3.016911 h -0.0389 z" />
      <path
         id="path63"
         style="font-style:normal;font-weight:bold;font-size:19.46393776px;line-height:1000%;font-family:Americana;-inkscape-font-specification:'Americana Bold';letter-spacing:0px;word-spacing:0px;fill:#000000;fill-opacity:1;stroke:none;stroke-width:1px;stroke-linecap:butt;stroke-linejoin:miter;stroke-opacity:1"
         d="m 216.86097,15.391635 c 0,-4.087427 2.12157,-4.865984 3.40619,-4.865984 1.26516,0 3.38673,0.778557 3.38673,4.865984 0,3.620293 -2.12157,4.865985 -3.38673,4.865985 -1.28462,0 -3.40619,-0.778558 -3.40619,-4.865985 z m 8.70038,-9.0507308 c -0.93427,0.2530312 -1.75175,0.4476706 -2.66656,0.622846 -0.13625,0.019464 -0.35035,0.038928 -0.35035,0.1167836 0,0.058392 0.11678,0.077856 0.25303,0.1167836 0.7591,0.1557116 0.7591,0.7980215 0.7591,1.4987233 v 2.9974463 h -0.0389 c -0.77856,-1.051053 -2.19943,-1.654435 -3.89279,-1.654435 -2.84173,0 -5.0217,2.588704 -5.0217,5.352583 0,3.269942 2.29675,5.352583 5.0217,5.352583 1.96586,0 3.19209,-0.914805 3.95118,-2.238353 h 0.0389 c 0.0973,0.486599 0.2141,1.245692 0.56445,1.946394 h 2.29675 c 0.23356,0 0.33088,-0.01946 0.33088,-0.07786 0,-0.03893 -0.0584,-0.07785 -0.13624,-0.09732 -0.70071,-0.19464 -0.9732,-0.934269 -1.03159,-1.693363 -0.0779,-1.051053 -0.0779,-2.121569 -0.0779,-3.192086 z" />
      <path
         id="path65"
         style="font-style:normal;font-weight:bold;font-size:19.46393776px;line-height:1000%;font-family:Americana;-inkscape-font-specification:'Americana Bold';letter-spacing:0px;word-spacing:0px;fill:#000000;fill-opacity:1;stroke:none;stroke-width:1px;stroke-linecap:butt;stroke-linejoin:miter;stroke-opacity:1"
         d="m 236.48428,10.253156 c -0.72016,0.253031 -1.53765,0.44767 -2.45245,0.622846 -0.13625,0.01946 -0.29196,0.03893 -0.29196,0.155711 0,0.05839 0.17517,0.07786 0.31142,0.09732 0.64231,0.136247 0.64231,0.934269 0.64231,1.479259 v 4.729737 c 0,1.479259 -0.0195,2.744415 -0.60338,2.958519 -0.0779,0.03893 -0.13625,0.07785 -0.13625,0.155711 0,0.05839 0.0779,0.05839 0.21411,0.05839 0.15571,0 0.46713,-0.05839 1.51818,-0.05839 1.07052,0 1.63497,0.05839 1.77122,0.05839 0.17518,0 0.2725,0 0.2725,-0.05839 0,-0.05839 -0.0389,-0.136248 -0.11679,-0.155711 -0.77856,-0.175176 -0.9148,-1.070517 -0.9148,-2.296745 v -2.744415 c 0,-1.849074 0.58392,-4.729737 2.93905,-4.729737 1.79068,0 2.41353,1.537651 2.41353,3.094766 v 4.379386 c 0,1.226228 -0.17518,2.102105 -0.95373,2.335672 -0.0779,0.01946 -0.11679,0.07786 -0.11679,0.116784 0,0.03893 0.0973,0.05839 0.15571,0.05839 0.21411,0 0.85642,-0.05839 1.90747,-0.05839 1.07052,0 1.71283,0.05839 1.84907,0.05839 0.0779,0 0.21411,-0.01946 0.21411,-0.07786 0,-0.07786 -0.0779,-0.155711 -0.23357,-0.175175 -0.7007,-0.116784 -0.81748,-0.720166 -0.81748,-1.693363 v -3.308869 c 0,-1.849074 0.58391,-4.729737 2.93905,-4.729737 1.79068,0 2.41353,1.537651 2.41353,3.094766 v 3.931715 c 0,1.673899 -0.0973,2.491384 -0.9732,2.744416 -0.0778,0.03893 -0.13625,0.05839 -0.13625,0.116783 0,0.03893 0.0389,0.09732 0.15572,0.09732 0.0973,0 0.89534,-0.05839 1.94639,-0.05839 1.07052,0 1.63497,0.05839 1.75175,0.05839 0.11679,0 0.2725,-0.01946 0.2725,-0.05839 0,-0.07786 -0.13625,-0.116784 -0.25303,-0.155711 -0.60338,-0.19464 -0.7591,-0.544991 -0.7591,-1.712827 v -4.126355 c 0,-3.620292 -1.84907,-4.418314 -3.62029,-4.418314 -1.888,0 -3.26994,0.856414 -3.81493,2.705488 h -0.0389 c -0.31142,-1.732291 -1.69336,-2.705488 -3.50351,-2.705488 -1.888,0 -3.26994,0.856414 -3.91225,2.705488 h -0.0389 z" />
      <path
         id="path67"
         style="font-style:normal;font-weight:bold;font-size:19.46393776px;line-height:1000%;font-family:Americana;-inkscape-font-specification:'Americana Bold';letter-spacing:0px;word-spacing:0px;fill:#000000;fill-opacity:1;stroke:none;stroke-width:1px;stroke-linecap:butt;stroke-linejoin:miter;stroke-opacity:1"
         d="m 255.75357,13.659345 c 0.21411,-1.673899 1.16784,-3.250478 2.93906,-3.250478 2.02425,0 2.93905,1.343012 2.93905,3.250478 z m 8.33057,0.369815 c -0.2725,-2.705488 -2.84174,-3.990108 -4.96331,-3.990108 -3.30887,0 -5.76132,2.238353 -5.76132,5.352583 0,3.11423 2.45245,5.352583 5.76132,5.352583 2.6471,0 4.59349,-1.615507 5.21634,-4.30153 h -0.40874 c -0.66178,2.277281 -2.31621,3.814932 -4.55456,3.814932 -1.88801,0 -3.75654,-1.343012 -3.75654,-4.963304 0,-0.408743 0.0195,-0.817486 0.0584,-1.265156 z" />
      <path
         id="path69"
         style="font-style:normal;font-weight:bold;font-size:19.46393776px;line-height:1000%;font-family:Americana;-inkscape-font-specification:'Americana Bold';letter-spacing:0px;word-spacing:0px;fill:#000000;fill-opacity:1;stroke:none;stroke-width:1px;stroke-linecap:butt;stroke-linejoin:miter;stroke-opacity:1"
         d="m 273.32679,15.975553 c 0,1.868538 -0.70071,4.282067 -2.99745,4.282067 -1.38194,0 -2.41353,-1.031589 -2.41353,-2.452456 0,-2.56924 2.1605,-3.192086 4.2626,-3.192086 h 1.14838 z m 2.00478,-2.686023 c 0,-2.452456 -2.33567,-3.250478 -4.55456,-3.250478 -1.73229,0 -2.99745,0.136248 -4.59349,0.973197 l 0.50606,1.751755 c 0.0389,0.116783 0.0584,0.214103 0.0973,0.214103 0.0389,0 0.0779,-0.155712 0.15571,-0.330887 0.70071,-1.712827 1.75176,-2.238353 3.54244,-2.238353 1.96586,0 2.84174,1.323548 2.84174,3.192086 v 0.64231 h -1.10945 c -2.04371,0 -6.55935,0.291959 -6.55935,3.250478 0,2.316208 2.08265,3.250477 4.1069,3.250477 1.71282,0 2.84173,-0.700702 3.60082,-2.277281 h 0.0389 c 0.0389,0.681238 0.19464,1.362476 0.46714,1.985322 h 2.1021 c 0.13625,0 0.25303,-0.01946 0.25303,-0.07786 0,-0.05839 -0.0778,-0.05839 -0.19464,-0.116783 -0.60338,-0.272495 -0.7007,-0.856414 -0.7007,-1.498724 z" />
      <path
         id="path71"
         style="font-style:normal;font-weight:bold;font-size:19.46393776px;line-height:1000%;font-family:Americana;-inkscape-font-specification:'Americana Bold';letter-spacing:0px;word-spacing:0px;fill:#000000;fill-opacity:1;stroke:none;stroke-width:1px;stroke-linecap:butt;stroke-linejoin:miter;stroke-opacity:1"
         d="m 286.62702,10.778682 c -1.05105,-0.428207 -2.49138,-0.73963 -3.62029,-0.73963 -2.12157,0 -5.11901,0.583918 -5.11901,3.269942 0,2.160497 2.27728,2.705487 4.00957,2.861199 2.27728,0.194639 3.44511,0.389279 3.44511,1.868538 0,1.790682 -1.86853,2.335672 -3.36726,2.335672 -1.34301,0 -3.69815,-0.681238 -4.00957,-2.218889 -0.0195,-0.09732 -0.0389,-0.175175 -0.11678,-0.175175 -0.0584,0 -0.11679,0.136248 -0.17518,0.369815 l -0.40874,1.615507 c 1.45979,0.54499 3.03637,0.778557 4.59349,0.778557 2.19942,0 5.43044,-0.661774 5.43044,-3.445117 0,-1.868538 -1.24569,-2.588704 -3.97065,-2.763879 -1.79068,-0.116784 -3.48404,-0.428207 -3.48404,-1.790682 0,-1.673899 1.34301,-2.335673 2.84173,-2.335673 1.59605,0 2.95852,0.817486 3.15316,1.907466 0.0195,0.116784 0.0779,0.155712 0.13625,0.155712 0.0779,0 0.11678,-0.09732 0.17518,-0.233568 z" />
      <path
         id="path73"
         style="font-style:normal;font-weight:bold;font-size:19.46393776px;line-height:1000%;font-family:Americana;-inkscape-font-specification:'Americana Bold';letter-spacing:0px;word-spacing:0px;fill:#000000;fill-opacity:1;stroke:none;stroke-width:1px;stroke-linecap:butt;stroke-linejoin:miter;stroke-opacity:1"
         d="m 299.26339,10.253156 c -0.97319,0.233567 -1.75175,0.369814 -2.51084,0.486598 -0.0973,0.01946 -0.31143,0.05839 -0.31143,0.116784 0,0.01946 0.0779,0.03893 0.25303,0.136247 0.35035,0.175176 0.56446,0.428207 0.56446,1.615507 v 3.912252 c 0,1.810146 -0.9732,3.737076 -2.99745,3.737076 -2.06318,0 -2.8612,-1.907466 -2.8612,-3.698148 v -6.306316 c -0.93427,0.253031 -1.75175,0.44767 -2.62763,0.564454 -0.17517,0.01946 -0.29196,0.01946 -0.29196,0.07786 0,0.05839 0.13625,0.116783 0.29196,0.155711 0.54499,0.19464 0.62285,0.428207 0.62285,1.557115 v 3.931716 c 0,3.133694 1.36247,4.20421 4.14582,4.20421 2.00478,0 3.15315,-0.798021 3.79546,-2.530312 h 0.0389 c 0.0389,0.914805 0.21411,1.596043 0.50606,2.238353 h 2.31621 c 0.13625,0 0.25303,-0.01946 0.25303,-0.07786 0,-0.01946 -0.0389,-0.03893 -0.11678,-0.05839 -0.83695,-0.214103 -1.07052,-0.720165 -1.07052,-2.335672 z" />
      <path
         id="path75"
         style="font-style:normal;font-weight:bold;font-size:19.46393776px;line-height:1000%;font-family:Americana;-inkscape-font-specification:'Americana Bold';letter-spacing:0px;word-spacing:0px;fill:#000000;fill-opacity:1;stroke:none;stroke-width:1px;stroke-linecap:butt;stroke-linejoin:miter;stroke-opacity:1"
         d="m 304.25465,10.253156 c -0.81748,0.291959 -1.63497,0.486598 -2.53031,0.64231 -0.13625,0.03893 -0.38928,0.01946 -0.40874,0.09732 0,0.03893 0.0973,0.09732 0.29196,0.155712 0.68124,0.155711 0.75909,0.856413 0.75909,2.199425 v 4.651881 c 0,1.634971 -0.13625,2.024249 -1.05105,2.355136 -0.13625,0.01946 -0.2141,0.05839 -0.2141,0.09732 0,0.03893 0.0779,0.05839 0.17517,0.05839 0.11679,0 1.03159,-0.05839 2.08264,-0.05839 1.07052,0 2.02425,0.05839 2.1605,0.05839 0.0973,0 0.15571,0 0.15571,-0.05839 0,-0.03893 -0.0584,-0.07786 -0.19464,-0.116784 -1.01212,-0.194639 -1.10944,-1.109444 -1.10944,-2.335672 v -3.581365 c 0,-1.265156 0.73963,-2.686023 1.84907,-2.686023 0.40874,0 0.87588,0.05839 1.20677,0.311423 l 0.81748,-2.004786 c -1.82961,-0.077855 -3.19208,1.109445 -3.95118,2.724952 h -0.0389 z" />
      <path
         id="path77"
         style="font-style:normal;font-weight:bold;font-size:19.46393776px;line-height:1000%;font-family:Americana;-inkscape-font-specification:'Americana Bold';letter-spacing:0px;word-spacing:0px;fill:#000000;fill-opacity:1;stroke:none;stroke-width:1px;stroke-linecap:butt;stroke-linejoin:miter;stroke-opacity:1"
         d="m 311.29422,13.659345 c 0.21411,-1.673899 1.16784,-3.250478 2.93906,-3.250478 2.02425,0 2.93905,1.343012 2.93905,3.250478 z m 8.33057,0.369815 c -0.2725,-2.705488 -2.84174,-3.990108 -4.96331,-3.990108 -3.30887,0 -5.76132,2.238353 -5.76132,5.352583 0,3.11423 2.45245,5.352583 5.76132,5.352583 2.6471,0 4.59349,-1.615507 5.21634,-4.30153 h -0.40874 c -0.66178,2.277281 -2.31621,3.814932 -4.55457,3.814932 -1.888,0 -3.75654,-1.343012 -3.75654,-4.963304 0,-0.408743 0.0195,-0.817486 0.0584,-1.265156 z" />
      <path
         id="path79"
         style="font-style:normal;font-weight:bold;font-size:19.46393776px;line-height:1000%;font-family:Americana;-inkscape-font-specification:'Americana Bold';letter-spacing:0px;word-spacing:0px;fill:#000000;fill-opacity:1;stroke:none;stroke-width:1px;stroke-linecap:butt;stroke-linejoin:miter;stroke-opacity:1"
         d="m 323.76788,10.253156 c -0.72016,0.253031 -1.53765,0.44767 -2.45245,0.622846 -0.13625,0.01946 -0.29196,0.03893 -0.29196,0.155711 0,0.05839 0.17517,0.07786 0.31142,0.09732 0.64231,0.136247 0.64231,0.934269 0.64231,1.479259 v 4.729737 c 0,1.479259 -0.0195,2.744415 -0.60338,2.958519 -0.0779,0.03893 -0.13625,0.07785 -0.13625,0.155711 0,0.05839 0.0779,0.05839 0.21411,0.05839 0.15571,0 0.46713,-0.05839 1.51818,-0.05839 1.07052,0 1.63497,0.05839 1.77122,0.05839 0.17518,0 0.2725,0 0.2725,-0.05839 0,-0.05839 -0.0389,-0.136248 -0.11679,-0.155711 -0.77856,-0.175176 -0.9148,-1.070517 -0.9148,-2.296745 v -2.744415 c 0,-1.849074 0.58392,-4.729737 2.93905,-4.729737 1.79068,0 2.41353,1.537651 2.41353,3.094766 v 4.379386 c 0,1.226228 -0.17518,2.102105 -0.95373,2.335672 -0.0779,0.01946 -0.11679,0.07786 -0.11679,0.116784 0,0.03893 0.0973,0.05839 0.15571,0.05839 0.21411,0 0.85642,-0.05839 1.90747,-0.05839 1.07052,0 1.71283,0.05839 1.84907,0.05839 0.0779,0 0.21411,-0.01946 0.21411,-0.07786 0,-0.07786 -0.0779,-0.155711 -0.23357,-0.175175 -0.7007,-0.116784 -0.81748,-0.720166 -0.81748,-1.693363 v -3.308869 c 0,-1.849074 0.58391,-4.729737 2.93905,-4.729737 1.79068,0 2.41353,1.537651 2.41353,3.094766 v 3.931715 c 0,1.673899 -0.0973,2.491384 -0.9732,2.744416 -0.0779,0.03893 -0.13625,0.05839 -0.13625,0.116783 0,0.03893 0.0389,0.09732 0.15572,0.09732 0.0973,0 0.89534,-0.05839 1.94639,-0.05839 1.07052,0 1.63497,0.05839 1.75175,0.05839 0.11679,0 0.2725,-0.01946 0.2725,-0.05839 0,-0.07786 -0.13625,-0.116784 -0.25303,-0.155711 -0.60338,-0.19464 -0.7591,-0.544991 -0.7591,-1.712827 v -4.126355 c 0,-3.620292 -1.84907,-4.418314 -3.62029,-4.418314 -1.888,0 -3.26994,0.856414 -3.81493,2.705488 h -0.0389 c -0.31142,-1.732291 -1.69336,-2.705488 -3.50351,-2.705488 -1.888,0 -3.26994,0.856414 -3.91225,2.705488 h -0.0389 z" />
      <path
         id="path81"
         style="font-style:normal;font-weight:bold;font-size:19.46393776px;line-height:1000%;font-family:Americana;-inkscape-font-specification:'Americana Bold';letter-spacing:0px;word-spacing:0px;fill:#000000;fill-opacity:1;stroke:none;stroke-width:1px;stroke-linecap:butt;stroke-linejoin:miter;stroke-opacity:1"
         d="m 343.03717,13.659345 c 0.21411,-1.673899 1.16784,-3.250478 2.93906,-3.250478 2.02425,0 2.93905,1.343012 2.93905,3.250478 z m 8.33057,0.369815 c -0.2725,-2.705488 -2.84174,-3.990108 -4.96331,-3.990108 -3.30887,0 -5.76132,2.238353 -5.76132,5.352583 0,3.11423 2.45245,5.352583 5.76132,5.352583 2.6471,0 4.59349,-1.615507 5.21634,-4.30153 h -0.40874 c -0.66178,2.277281 -2.31621,3.814932 -4.55457,3.814932 -1.888,0 -3.75654,-1.343012 -3.75654,-4.963304 0,-0.408743 0.0195,-0.817486 0.0584,-1.265156 z" />
      <path
         id="path83"
         style="font-style:normal;font-weight:bold;font-size:19.46393776px;line-height:1000%;font-family:Americana;-inkscape-font-specification:'Americana Bold';letter-spacing:0px;word-spacing:0px;fill:#000000;fill-opacity:1;stroke:none;stroke-width:1px;stroke-linecap:butt;stroke-linejoin:miter;stroke-opacity:1"
         d="m 355.5108,10.253156 c -0.72016,0.253031 -1.51818,0.389278 -2.45245,0.564454 -0.23357,0.03893 -0.36982,0.03893 -0.36982,0.09732 0,0.03893 0.13625,0.09732 0.35035,0.194639 0.54499,0.233567 0.68124,0.895341 0.68124,2.063177 v 4.827057 c 0,1.226228 -0.0779,2.141033 -1.05105,2.296745 -0.13625,0.01946 -0.2141,0.05839 -0.2141,0.116783 0,0.07786 0.0584,0.09732 0.17517,0.09732 0.13625,0 1.03159,-0.05839 2.08264,-0.05839 1.05105,0 1.84908,0.05839 1.98532,0.05839 0.11679,0 0.17518,-0.01946 0.17518,-0.09732 0,-0.05839 -0.0779,-0.09732 -0.2141,-0.116783 -0.87588,-0.155712 -0.93427,-1.070517 -0.93427,-2.296745 v -2.374601 c 0,-2.724951 0.75909,-5.099551 3.0753,-5.099551 2.06318,0 2.8612,1.907466 2.8612,3.698148 v 3.776004 c 0,1.73229 -0.35035,2.257817 -1.05105,2.335672 -0.13625,0.01946 -0.17518,0.07786 -0.17518,0.116784 0,0.05839 0.0973,0.05839 0.2141,0.05839 0.25303,0 0.95374,-0.05839 2.00479,-0.05839 1.07052,0 1.57658,0.05839 1.75175,0.05839 0.19464,0 0.29196,0 0.29196,-0.05839 0,-0.03893 -0.11678,-0.09732 -0.25303,-0.136248 -0.56445,-0.194639 -0.81748,-0.467134 -0.77856,-2.316208 v -3.75654 c 0,-3.094766 -2.00478,-4.204211 -4.14582,-4.204211 -2.56924,0 -3.52297,1.362476 -3.97064,3.016911 h -0.0389 z" />
      <path
         id="path85"
         style="font-style:normal;font-weight:bold;font-size:19.46393776px;line-height:1000%;font-family:Americana;-inkscape-font-specification:'Americana Bold';letter-spacing:0px;word-spacing:0px;fill:#000000;fill-opacity:1;stroke:none;stroke-width:1px;stroke-linecap:butt;stroke-linejoin:miter;stroke-opacity:1"
         d="m 366.94466,11.440456 v 7.590936 c 0,0.739629 0.27249,1.167836 0.81748,1.420867 h 2.35514 c 0.17518,0 0.31142,-0.01946 0.31142,-0.07786 0,-0.05839 -0.0779,-0.07785 -0.23356,-0.136247 -0.62285,-0.214104 -1.2457,-0.681238 -1.2457,-3.269942 v -5.527758 h 2.02425 l 0.13625,-0.622846 h -2.1605 V 8.3067619 c 0,-0.1362476 0,-0.2724951 -0.0973,-0.2724951 -0.0779,0 -0.15571,0.058392 -0.2141,0.1946394 -0.72016,1.4792592 -1.65443,2.3746008 -2.76388,2.7638788 -0.23357,0.09732 -0.38928,0.175176 -0.38928,0.272495 0,0.09732 0.0779,0.175176 0.19464,0.175176 z" />
      <path
         id="path87"
         style="font-style:normal;font-weight:bold;font-size:19.46393776px;line-height:1000%;font-family:Americana;-inkscape-font-specification:'Americana Bold';letter-spacing:0px;word-spacing:0px;fill:#000000;fill-opacity:1;stroke:none;stroke-width:1px;stroke-linecap:butt;stroke-linejoin:miter;stroke-opacity:1"
         d="m 379.42499,17.999803 c 0,1.226228 -0.13625,2.102105 -1.03159,2.277281 -0.11678,0.01946 -0.19464,0.05839 -0.19464,0.175175 0,0.05839 0.0973,0.05839 0.2725,0.05839 0.19464,0 0.89534,-0.05839 1.94639,-0.05839 1.05105,0 1.75175,0.05839 1.94639,0.05839 0.17518,0 0.2725,0 0.2725,-0.05839 0,-0.116784 -0.0779,-0.155711 -0.19464,-0.175175 -0.89534,-0.175176 -1.01212,-1.051053 -1.01212,-2.277281 v -7.746647 c -0.93427,0.253031 -1.75176,0.44767 -2.66656,0.622846 -0.13625,0.01946 -0.35036,0.03893 -0.35036,0.07785 0,0.05839 0.21411,0.05839 0.33089,0.116784 0.31142,0.175176 0.68124,0.291959 0.68124,1.265156 z m 0.83695,-9.0118033 c 0.66177,0 1.16784,-0.5255263 1.16784,-1.1483723 0,-0.622846 -0.50607,-1.1678363 -1.16784,-1.1678363 -0.62285,0 -1.14837,0.5449903 -1.14837,1.1678363 0,0.622846 0.52552,1.1483723 1.14837,1.1483723 z" />
      <path
         id="path89"
         style="font-style:normal;font-weight:bold;font-size:19.46393776px;line-height:1000%;font-family:Americana;-inkscape-font-specification:'Americana Bold';letter-spacing:0px;word-spacing:0px;fill:#000000;fill-opacity:1;stroke:none;stroke-width:1px;stroke-linecap:butt;stroke-linejoin:miter;stroke-opacity:1"
         d="m 386.3414,10.253156 c -0.72017,0.253031 -1.51819,0.389278 -2.45246,0.564454 -0.23356,0.03893 -0.36981,0.03893 -0.36981,0.09732 0,0.03893 0.13625,0.09732 0.35035,0.194639 0.54499,0.233567 0.68124,0.895341 0.68124,2.063177 v 4.827057 c 0,1.226228 -0.0779,2.141033 -1.05105,2.296745 -0.13625,0.01946 -0.21411,0.05839 -0.21411,0.116783 0,0.07786 0.0584,0.09732 0.17518,0.09732 0.13625,0 1.03159,-0.05839 2.08264,-0.05839 1.05105,0 1.84907,0.05839 1.98532,0.05839 0.11678,0 0.17518,-0.01946 0.17518,-0.09732 0,-0.05839 -0.0779,-0.09732 -0.21411,-0.116783 -0.87587,-0.155712 -0.93427,-1.070517 -0.93427,-2.296745 v -2.374601 c 0,-2.724951 0.7591,-5.099551 3.07531,-5.099551 2.06317,0 2.86119,1.907466 2.86119,3.698148 v 3.776004 c 0,1.73229 -0.35035,2.257817 -1.05105,2.335672 -0.13625,0.01946 -0.17517,0.07786 -0.17517,0.116784 0,0.05839 0.0973,0.05839 0.2141,0.05839 0.25303,0 0.95373,-0.05839 2.00479,-0.05839 1.07051,0 1.57657,0.05839 1.75175,0.05839 0.19464,0 0.29196,0 0.29196,-0.05839 0,-0.03893 -0.11678,-0.09732 -0.25303,-0.136248 -0.56446,-0.194639 -0.81749,-0.467134 -0.77856,-2.316208 v -3.75654 c 0,-3.094766 -2.00479,-4.204211 -4.14582,-4.204211 -2.56924,0 -3.52297,1.362476 -3.97064,3.016911 h -0.0389 z" />
      <path
         id="path91"
         style="font-style:normal;font-weight:bold;font-size:19.46393776px;line-height:1000%;font-family:Americana;-inkscape-font-specification:'Americana Bold';letter-spacing:0px;word-spacing:0px;fill:#000000;fill-opacity:1;stroke:none;stroke-width:1px;stroke-linecap:butt;stroke-linejoin:miter;stroke-opacity:1"
         d="m 397.77522,11.440456 v 7.590936 c 0,0.739629 0.2725,1.167836 0.81749,1.420867 h 2.35514 c 0.17517,0 0.31142,-0.01946 0.31142,-0.07786 0,-0.05839 -0.0779,-0.07785 -0.23357,-0.136247 -0.62284,-0.214104 -1.24569,-0.681238 -1.24569,-3.269942 v -5.527758 h 2.02425 l 0.13625,-0.622846 h -2.1605 V 8.3067619 c 0,-0.1362476 0,-0.2724951 -0.0973,-0.2724951 -0.0779,0 -0.15571,0.058392 -0.2141,0.1946394 -0.72017,1.4792592 -1.65444,2.3746008 -2.76388,2.7638788 -0.23357,0.09732 -0.38928,0.175176 -0.38928,0.272495 0,0.09732 0.0779,0.175176 0.19464,0.175176 z" />
      <path
         id="path93"
         style="font-style:normal;font-weight:bold;font-size:19.46393776px;line-height:1000%;font-family:Americana;-inkscape-font-specification:'Americana Bold';letter-spacing:0px;word-spacing:0px;fill:#000000;fill-opacity:1;stroke:none;stroke-width:1px;stroke-linecap:butt;stroke-linejoin:miter;stroke-opacity:1"
         d="m 405.26856,13.659345 c 0.2141,-1.673899 1.16783,-3.250478 2.93905,-3.250478 2.02425,0 2.93906,1.343012 2.93906,3.250478 z m 8.33056,0.369815 c -0.27249,-2.705488 -2.84173,-3.990108 -4.9633,-3.990108 -3.30887,0 -5.76133,2.238353 -5.76133,5.352583 0,3.11423 2.45246,5.352583 5.76133,5.352583 2.64709,0 4.59349,-1.615507 5.21633,-4.30153 h -0.40874 c -0.66177,2.277281 -2.31621,3.814932 -4.55456,3.814932 -1.888,0 -3.75654,-1.343012 -3.75654,-4.963304 0,-0.408743 0.0195,-0.817486 0.0584,-1.265156 z" />
      <path
         id="path95"
         style="font-style:normal;font-weight:bold;font-size:19.46393776px;line-height:1000%;font-family:Americana;-inkscape-font-specification:'Americana Bold';letter-spacing:0px;word-spacing:0px;fill:#000000;fill-opacity:1;stroke:none;stroke-width:1px;stroke-linecap:butt;stroke-linejoin:miter;stroke-opacity:1"
         d="m 418.07307,10.253156 c -0.81748,0.291959 -1.63497,0.486598 -2.53031,0.64231 -0.13624,0.03893 -0.38928,0.01946 -0.40874,0.09732 0,0.03893 0.0973,0.09732 0.29196,0.155712 0.68124,0.155711 0.75909,0.856413 0.75909,2.199425 v 4.651881 c 0,1.634971 -0.13624,2.024249 -1.05105,2.355136 -0.13625,0.01946 -0.2141,0.05839 -0.2141,0.09732 0,0.03893 0.0779,0.05839 0.17517,0.05839 0.11679,0 1.03159,-0.05839 2.08264,-0.05839 1.07052,0 2.02425,0.05839 2.1605,0.05839 0.0973,0 0.15571,0 0.15571,-0.05839 0,-0.03893 -0.0584,-0.07786 -0.19464,-0.116784 -1.01212,-0.194639 -1.10944,-1.109444 -1.10944,-2.335672 v -3.581365 c 0,-1.265156 0.73963,-2.686023 1.84907,-2.686023 0.40875,0 0.87588,0.05839 1.20677,0.311423 l 0.81748,-2.004786 c -1.82961,-0.077855 -3.19208,1.109445 -3.95118,2.724952 h -0.0389 z" />
      <path
         id="path97"
         style="font-style:normal;font-weight:bold;font-size:19.46393776px;line-height:1000%;font-family:Americana;-inkscape-font-specification:'Americana Bold';letter-spacing:0px;word-spacing:0px;fill:#000000;fill-opacity:1;stroke:none;stroke-width:1px;stroke-linecap:butt;stroke-linejoin:miter;stroke-opacity:1"
         d="m 428.03223,10.81761 h -1.90746 V 8.5208652 c 0,-0.9537329 0.19464,-1.4792593 0.97319,-1.4792593 0.44767,0 0.85642,0.3503509 1.20677,0.9342691 0.0584,0.077856 0.15571,0.1557115 0.23357,0.1557115 0.0973,0 0.13624,-0.1946394 0.19463,-0.3698149 l 0.545,-1.4208674 c -2.99745,0 -5.15795,0.9148051 -5.15795,3.8538598 v 0.622846 h -1.44033 l -0.25303,0.622846 h 1.69336 v 6.559347 c 0,1.226228 -0.0584,1.92693 -0.93427,2.277281 -0.0973,0.03893 -0.27249,0.05839 -0.27249,0.116783 0,0.03893 0.11678,0.05839 0.27249,0.05839 h 3.87333 c 0.19464,0 0.27249,-0.01946 0.27249,-0.05839 0,-0.03893 -0.11678,-0.07786 -0.19464,-0.07786 -0.99266,-0.525526 -1.01212,-1.08998 -1.01212,-2.316208 v -6.559347 h 1.73229 z" />
      <path
         id="path99"
         style="font-style:normal;font-weight:bold;font-size:19.46393776px;line-height:1000%;font-family:Americana;-inkscape-font-specification:'Americana Bold';letter-spacing:0px;word-spacing:0px;fill:#000000;fill-opacity:1;stroke:none;stroke-width:1px;stroke-linecap:butt;stroke-linejoin:miter;stroke-opacity:1"
         d="m 436.90747,15.975553 c 0,1.868538 -0.7007,4.282067 -2.99744,4.282067 -1.38194,0 -2.41353,-1.031589 -2.41353,-2.452456 0,-2.56924 2.1605,-3.192086 4.2626,-3.192086 h 1.14837 z m 2.00479,-2.686023 c 0,-2.452456 -2.33567,-3.250478 -4.55456,-3.250478 -1.73229,0 -2.99745,0.136248 -4.59349,0.973197 l 0.50606,1.751755 c 0.0389,0.116783 0.0584,0.214103 0.0973,0.214103 0.0389,0 0.0779,-0.155712 0.15571,-0.330887 0.7007,-1.712827 1.75176,-2.238353 3.54244,-2.238353 1.96586,0 2.84173,1.323548 2.84173,3.192086 v 0.64231 h -1.10944 c -2.04371,0 -6.55935,0.291959 -6.55935,3.250478 0,2.316208 2.08264,3.250477 4.10689,3.250477 1.71283,0 2.84174,-0.700702 3.60083,-2.277281 h 0.0389 c 0.0389,0.681238 0.19464,1.362476 0.46713,1.985322 h 2.10211 c 0.13625,0 0.25303,-0.01946 0.25303,-0.07786 0,-0.05839 -0.0778,-0.05839 -0.19464,-0.116783 -0.60338,-0.272495 -0.7007,-0.856414 -0.7007,-1.498724 z" />
      <path
         id="path101"
         style="font-style:normal;font-weight:bold;font-size:19.46393776px;line-height:1000%;font-family:Americana;-inkscape-font-specification:'Americana Bold';letter-spacing:0px;word-spacing:0px;fill:#000000;fill-opacity:1;stroke:none;stroke-width:1px;stroke-linecap:butt;stroke-linejoin:miter;stroke-opacity:1"
         d="m 451.21987,11.206889 c -0.95374,-0.700702 -3.23102,-1.167837 -4.34046,-1.167837 -3.30887,0 -5.76133,2.238353 -5.76133,5.352583 0,3.11423 2.45246,5.352583 5.76133,5.352583 2.1021,0 3.42565,-0.953733 4.47671,-2.744415 l -0.31143,-0.311423 c -0.72016,1.440331 -2.25781,2.56924 -3.91225,2.56924 -1.79068,0 -3.75654,-1.343012 -3.75654,-4.865985 0.0195,-2.3746 0.93427,-4.982768 3.48405,-4.982768 2.02424,0 3.0753,1.206764 3.5619,2.608168 0.0389,0.116783 0.0584,0.233567 0.11678,0.233567 0.0584,0 0.13625,-0.214103 0.23357,-0.525526 z" />
      <path
         id="path103"
         style="font-style:normal;font-weight:bold;font-size:19.46393776px;line-height:1000%;font-family:Americana;-inkscape-font-specification:'Americana Bold';letter-spacing:0px;word-spacing:0px;fill:#000000;fill-opacity:1;stroke:none;stroke-width:1px;stroke-linecap:butt;stroke-linejoin:miter;stroke-opacity:1"
         d="m 455.06885,13.659345 c 0.2141,-1.673899 1.16784,-3.250478 2.93905,-3.250478 2.02425,0 2.93906,1.343012 2.93906,3.250478 z m 8.33057,0.369815 c -0.2725,-2.705488 -2.84174,-3.990108 -4.96331,-3.990108 -3.30887,0 -5.76132,2.238353 -5.76132,5.352583 0,3.11423 2.45245,5.352583 5.76132,5.352583 2.6471,0 4.59349,-1.615507 5.21634,-4.30153 h -0.40875 c -0.66177,2.277281 -2.3162,3.814932 -4.55456,3.814932 -1.888,0 -3.75654,-1.343012 -3.75654,-4.963304 0,-0.408743 0.0195,-0.817486 0.0584,-1.265156 z" />
    </g>
  </g>
</svg>
